<svg width="64" height="64" viewBox="0 0 64 64" fill="none" xmlns="http://www.w3.org/2000/svg">
<path d="M53.0599 22.6404C54.3012 22.6404 55.4915 23.1335 56.3692 24.0112C57.2469 24.8888 57.7399 26.0792 57.7399 27.3204V36.6804C57.7399 37.9216 57.2469 39.112 56.3692 39.9897C55.4915 40.8673 54.3012 41.3604 53.0599 41.3604H50.5749C50.0044 45.8843 47.8026 50.0446 44.3826 53.0604C40.9627 56.0762 36.5597 57.7403 31.9999 57.7404V53.0604C35.7236 53.0604 39.2947 51.5812 41.9277 48.9482C44.5607 46.3152 46.0399 42.7441 46.0399 39.0204V24.9804C46.0399 21.2568 44.5607 17.6857 41.9277 15.0526C39.2947 12.4196 35.7236 10.9404 31.9999 10.9404C28.2763 10.9404 24.7052 12.4196 22.0722 15.0526C19.4392 17.6857 17.9599 21.2568 17.9599 24.9804V41.3604H10.9399C9.69874 41.3604 8.50836 40.8673 7.63069 39.9897C6.75302 39.112 6.25995 37.9216 6.25995 36.6804V27.3204C6.25995 26.0792 6.75302 24.8888 7.63069 24.0112C8.50836 23.1335 9.69874 22.6404 10.9399 22.6404H13.425C13.9961 18.117 16.1981 13.9573 19.618 10.942C23.0379 7.92669 27.4406 6.26294 31.9999 6.26294C36.5593 6.26294 40.962 7.92669 44.3819 10.942C47.8018 13.9573 50.0038 18.117 50.5749 22.6404H53.0599ZM22.0783 40.8573L24.5587 36.8887C26.7889 38.2857 29.3683 39.0247 31.9999 39.0204C34.6316 39.0247 37.211 38.2857 39.4411 36.8887L41.9215 40.8573C38.948 42.7203 35.5089 43.7058 31.9999 43.7004C28.491 43.7058 25.0519 42.7203 22.0783 40.8573Z" fill="white"/>
</svg>
