<svg width="28" height="22" viewBox="0 0 28 22" fill="none" xmlns="http://www.w3.org/2000/svg">
<path d="M3.31893 19.5216C1.7662 17.8724 0.932556 16.0227 0.932556 13.0243C0.932556 7.74807 4.63648 3.01904 10.0228 0.680908L11.369 2.75824C6.34147 5.47777 5.35858 9.00683 4.96663 11.2319C5.77615 10.8128 6.83593 10.6666 7.87459 10.7631C10.5941 11.0148 12.7378 13.2474 12.7378 16.0227C12.7378 17.4221 12.1819 18.7641 11.1924 19.7536C10.2029 20.7431 8.86089 21.299 7.46154 21.299C5.84399 21.299 4.2973 20.5603 3.31893 19.5216V19.5216ZM18.3939 19.5216C16.8412 17.8724 16.0076 16.0227 16.0076 13.0243C16.0076 7.74807 19.7115 3.01904 25.0978 0.680908L26.444 2.75824C21.4165 5.47777 20.4336 9.00683 20.0416 11.2319C20.8512 10.8128 21.9109 10.6666 22.9496 10.7631C25.6691 11.0148 27.8128 13.2474 27.8128 16.0227C27.8128 17.4221 27.2569 18.7641 26.2674 19.7536C25.2779 20.7431 23.9359 21.299 22.5365 21.299C20.919 21.299 19.3723 20.5603 18.3939 19.5216V19.5216Z" fill="white"/>
</svg>
