<svg width="64" height="64" viewBox="0 0 64 64" fill="none" xmlns="http://www.w3.org/2000/svg">
<path d="M29.6601 8.6001L46.7374 13.9353C47.2137 14.084 47.63 14.381 47.9255 14.7831C48.221 15.1851 48.3803 15.671 48.3801 16.17V20.3001H53.0601C53.6807 20.3001 54.2759 20.5466 54.7147 20.9855C55.1535 21.4243 55.4001 22.0195 55.4001 22.6401V41.3601C55.4001 41.9807 55.1535 42.5759 54.7147 43.0147C54.2759 43.4536 53.6807 43.7001 53.0601 43.7001L45.5253 43.7024C44.6197 44.8958 43.5199 45.9488 42.2493 46.8146L29.6601 55.4001L17.0709 46.817C15.1814 45.5287 13.6352 43.7984 12.5667 41.7764C11.4982 39.7545 10.9398 37.5021 10.9401 35.2153V16.17C10.9403 15.6714 11.0999 15.186 11.3953 14.7844C11.6908 14.3829 12.1068 14.0862 12.5827 13.9376L29.6601 8.6001ZM29.6601 13.5001L15.6201 17.8899V35.2153C15.6197 36.6479 15.9482 38.0614 16.5803 39.3471C17.2124 40.6327 18.1311 41.7561 19.2658 42.6307L19.708 42.949L29.6601 49.7373L38.5099 43.7001H27.3201C26.6995 43.7001 26.1043 43.4536 25.6654 43.0147C25.2266 42.5759 24.9801 41.9807 24.9801 41.3601V22.6401C24.9801 22.0195 25.2266 21.4243 25.6654 20.9855C26.1043 20.5466 26.6995 20.3001 27.3201 20.3001H43.7001V17.8899L29.6601 13.5001ZM29.6601 32.0001V39.0201H50.7201V32.0001H29.6601ZM29.6601 27.3201H50.7201V24.9801H29.6601V27.3201Z" fill="white"/>
</svg>
